<?xml version="1.0" encoding="UTF-8" standalone="no"?>
<svg
   xmlns:dc="http://purl.org/dc/elements/1.1/"
   xmlns:cc="http://creativecommons.org/ns#"
   xmlns:rdf="http://www.w3.org/1999/02/22-rdf-syntax-ns#"
   xmlns:svg="http://www.w3.org/2000/svg"
   xmlns="http://www.w3.org/2000/svg"
   xmlns:sodipodi="http://sodipodi.sourceforge.net/DTD/sodipodi-0.dtd"
   xmlns:inkscape="http://www.inkscape.org/namespaces/inkscape"
   version="1.1"
   width="620"
   height="610"
   viewBox="0 0 620 610"
   preserveAspectRatio="none"
   id="svg3402"
   inkscape:version="0.91 r13725"
   sodipodi:docname="nodemcu.svg">
  <metadata
     id="metadata3412">
    <rdf:RDF>
      <cc:Work
         rdf:about="">
        <dc:format>image/svg+xml</dc:format>
        <dc:type
           rdf:resource="http://purl.org/dc/dcmitype/StillImage" />
        <dc:title></dc:title>
      </cc:Work>
    </rdf:RDF>
  </metadata>
  <defs
     id="defs3410" />
  <sodipodi:namedview
     pagecolor="#ffffff"
     bordercolor="#666666"
     borderopacity="1"
     objecttolerance="10"
     gridtolerance="10"
     guidetolerance="10"
     inkscape:pageopacity="0"
     inkscape:pageshadow="2"
     inkscape:window-width="1676"
     inkscape:window-height="1005"
     id="namedview3408"
     showgrid="false"
     fit-margin-top="0"
     fit-margin-left="0"
     fit-margin-right="0"
     fit-margin-bottom="0"
     inkscape:zoom="1"
     inkscape:cx="182.47781"
     inkscape:cy="211.84303"
     inkscape:window-x="4"
     inkscape:window-y="1"
     inkscape:window-maximized="1"
     inkscape:current-layer="svg3402" />
  <g
     id="g3404">
    <g
       id="g3557">
      <path
         style="fill:#035781"
         d="M 107.5,568.56967 C 95.688235,565.90151 91.856842,564.36308 82.5,558.53136 68.39132,549.73802 55.688603,533.53625 50.148866,517.26888 L 47.503228,509.5 47.239432,311.14341 C 46.979986,116.05758 47.008479,112.64853 48.967384,104.40049 55.290206,77.778023 77.778023,55.290206 104.40049,48.967384 c 8.24792,-1.958876 11.65999,-1.987421 206.74292,-1.729566 L 509.5,47.5 l 7.87917,2.782078 C 543.05474,59.347944 561.07948,79.094643 568.23835,106 l 2.26165,8.5 0,194 0,194 -2.25443,8.24058 c -4.98753,18.23087 -15.09297,33.69937 -28.72475,43.96924 -9.71234,7.31706 -17.75312,10.994 -30.23217,13.82475 L 498.5,570.98188 308,570.90523 l -190.5,-0.0767 -10,-2.2589 z M 350,492.54183 c 46.03944,-4.73087 91.45419,-19.09976 126,-39.86547 18.57713,-11.16683 37.93131,-28.22085 50.13466,-44.17636 6.60881,-8.64082 14.56764,-24.58052 17.47581,-35 3.08991,-11.07061 4.24377,-29.6955 2.48139,-40.05292 -4.19542,-24.65622 -17.09671,-45.89483 -37.15526,-61.16645 -8.2436,-6.27628 -22.17621,-12.77921 -32.9366,-15.37288 -9.90557,-2.38763 -10.9594,-3.01561 -10.98469,-6.54588 -0.0268,-3.73629 -4.88777,-19.11954 -9.56407,-30.26662 C 433.93251,168.80021 387.48372,132.43552 332.5,123.83692 c -10.59171,-1.65637 -37.7329,-1.6218 -49,0.0624 -43.26925,6.46794 -84.41198,33.11067 -108.99743,70.58329 -9.97375,15.20177 -16.12774,29.1732 -20.90443,47.45936 -3.63686,13.92265 -2.2419,12.49364 -15.09814,15.4666 -8.6901,2.00955 -23.31679,9.16419 -31.67931,15.49592 -13.215973,10.00655 -24.742628,25.02137 -30.613077,39.87711 -5.694714,14.41104 -6.622561,19.34465 -6.623398,35.21838 -6.43e-4,12.22215 0.364795,15.75674 2.326254,22.5 3.021942,10.38907 8.878929,23.92932 12.902122,29.82729 1.753075,2.56999 4.51447,6.61648 6.136434,8.9922 4.002467,5.8625 20.079925,22.18311 28.050975,28.47522 29.76822,23.49815 70.66247,40.8943 119,50.62182 31.03787,6.24612 75.44365,7.88171 112,4.1253 z m -89.23422,-57.45904 -3.26578,-2.91721 0,-18.16372 0,-18.16371 3.26578,-2.91908 c 5.36444,-4.79493 14.1232,-3.76275 17.56895,2.07043 1.37317,2.32461 1.66527,5.72394 1.66527,19.38 l 0,16.56091 -3.10359,3.53479 c -2.75663,3.13963 -3.64922,3.5348 -7.98423,3.5348 -3.97915,0 -5.48383,-0.53882 -8.1464,-2.91721 z M 300.4,434.6 l -3.4,-3.4 0,-16.69571 c 0,-13.78182 0.29064,-17.18772 1.66527,-19.51479 3.44535,-5.8325 12.20389,-6.86521 17.56895,-2.07153 l 3.26578,2.91797 0,18.16406 0,18.16406 -3.26578,2.91797 c -2.60177,2.32468 -4.19785,2.91797 -7.85,2.91797 -3.88009,0 -5.10645,-0.52223 -7.98422,-3.4 z m 40.38161,1.14503 c -1.49511,-1.23477 -3.18261,-3.51182 -3.75,-5.06013 -1.33552,-3.64442 -1.32879,-28.07473 0.009,-32.8918 1.92088,-6.91629 10.43215,-9.98972 16.96982,-6.12783 4.45344,2.63072 4.9895,5.0998 4.9895,22.98178 l 0,16.55295 -3.4,3.4 c -2.82723,2.82723 -4.13281,3.39916 -7.75,3.39503 -3.02906,-0.003 -5.17548,-0.6867 -7.06839,-2.25 z m -93.8573,-66.32542 -2.42431,-2.58038 0,-57.16962 c 0,-31.44328 0.34281,-58.39412 0.76181,-59.89075 1.49651,-5.34547 0.70264,-5.27886 62.9141,-5.27886 57.09905,0 57.70416,0.0211 60.5,2.10777 l 2.82409,2.10778 0.25784,59.56348 0.25783,59.56348 -2.64269,2.07875 C 366.76509,371.97262 365.95717,372 308.03946,372 l -58.69083,0 -2.42432,-2.58039 z m 48.05576,-28.17116 c 9.04971,-4.54674 10.58092,-16.13175 3.23881,-24.50458 -0.84698,-0.96587 -1.23589,-2.0602 -0.86425,-2.43183 0.37163,-0.37163 5.99807,4.58113 12.5032,11.00613 L 321.68534,337 l 5.95733,0 c 3.30015,0 6.49257,-0.53524 7.15733,-1.2 0.83434,-0.83434 1.2,-6.125 1.2,-17.3625 l 0,-16.16249 2.97445,-3.74286 c 5.88487,-7.40514 4.98029,-16.3792 -2.17336,-21.56128 -12.2012,-8.83851 -28.22369,3.51317 -22.45599,17.31125 0.7398,1.76983 2.0898,3.83548 3,4.59032 0.91019,0.75485 1.6549,2.09782 1.6549,2.98437 0,0.90898 -5.13064,-3.50535 -11.76502,-10.12244 L 295.46996,280 l -6.53498,0 c -3.74943,0 -7.04648,0.5115 -7.73498,1.2 -0.83557,0.83557 -1.2,6.17038 -1.2,17.56672 0,16.20068 -0.0271,16.40229 -2.67371,19.87214 -3.84878,5.04601 -4.34782,12.60983 -1.14543,17.36114 2.70564,4.01429 7.95698,6.99689 12.31914,6.99689 1.65,0 4.56603,-0.7868 6.48007,-1.74844 z M 184.02823,357.8868 C 177.54984,355.30142 176.71518,343.729 182.6693,339.04549 185.05487,337.169 186.65925,337 202.08781,337 c 18.31228,0 21.14779,0.62114 23.48719,5.14503 2.93629,5.67817 0.94436,13.38604 -4.04706,15.66028 -3.21899,1.46668 -33.86189,1.53326 -37.49971,0.0815 z M 395.5,358.05464 c -4.0015,-1.63778 -6,-5.01421 -6,-10.1369 0,-3.98983 0.50171,-5.37448 2.77011,-7.64501 l 2.7701,-2.77273 17.10994,-0.31745 c 10.98009,-0.20373 18.06986,0.0802 19.78932,0.79238 7.60906,3.15177 8.00374,16.45176 0.58847,19.83038 -3.00763,1.37037 -33.78266,1.5776 -37.02794,0.24933 z M 184.40376,318.57379 c -3.91894,-1.7061 -6.73226,-8.00529 -5.46387,-12.23396 C 181.59548,297.48641 182.82246,297 202.5,297 c 11.88371,0 16.2876,0.35593 18.48896,1.49429 8.15951,4.21945 8.10874,15.81823 -0.0878,20.05682 -3.81489,1.97276 -31.97781,1.99026 -36.4974,0.0227 z M 397,319.29629 c -3.01217,-1.09605 -6.99005,-5.72633 -7.56851,-8.8098 -0.88331,-4.70842 1.64696,-9.82131 5.84661,-11.81417 4.85673,-2.30467 32.34065,-2.43795 36.71086,-0.17803 8.15951,4.21945 8.10874,15.81823 -0.0878,20.05682 -2.11128,1.09179 -6.5727,1.42943 -18.1015,1.36994 C 405.38485,319.87763 397.825,319.59649 397,319.29629 Z M 184.357,279.00842 C 180.88888,277.60886 179,273.97431 179,268.70057 c 0,-4.03207 0.49517,-5.34959 2.92308,-7.77749 L 184.84615,258 l 17.82693,0.0222 c 19.1388,0.0239 20.4958,0.3549 23.20988,5.66202 2.24001,4.38011 1.37845,9.25433 -2.28296,12.91574 l -3.4,3.4 -16.85,-0.0634 c -9.2675,-0.0349 -17.81435,-0.45255 -18.993,-0.92819 z m 210.89932,-0.0372 c -1.23402,-0.49613 -3.17016,-2.38011 -4.30252,-4.18662 -2.91314,-4.64745 -2.09708,-10.3733 2.00023,-14.03456 l 3.07752,-2.75 17.03389,0 C 434.77203,258 438,259.35723 438,268.48392 c 0,4.70033 -2.18642,8.82436 -5.47206,10.32139 -3.1138,1.41875 -33.81549,1.55537 -37.27162,0.16587 z M 263.5,226.05464 c -1.1,-0.45022 -2.9,-1.81894 -4,-3.0416 -1.84339,-2.04894 -2,-3.63069 -2,-20.20006 l 0,-17.97704 3.26578,-2.91797 C 263.41141,179.5541 264.94173,179 268.82465,179 c 5.05062,0 6.83978,0.93363 9.52905,4.97251 1.36571,2.05109 1.6463,5.34907 1.6463,19.35 l 0,16.87749 -3.4,3.4 c -2.72985,2.72985 -4.15885,3.38751 -7.25,3.33661 -2.1175,-0.0349 -4.75,-0.43175 -5.85,-0.88197 z m 38.9202,-0.19919 C 297.76924,223.59865 297,220.32917 297,202.81821 c 0,-13.79161 0.26869,-16.76304 1.70411,-18.8457 2.75149,-3.99217 4.51616,-4.90702 9.53011,-4.94071 3.84278,-0.0258 5.34917,0.51737 8,2.88465 l 3.26578,2.91645 0.33558,15.36361 c 0.18458,8.44999 -0.0685,16.92508 -0.56245,18.83355 -1.63162,6.30443 -10.51341,9.90154 -16.85293,6.82539 z m 38.88427,-0.81136 c -4.69687,-2.86387 -5.5553,-7.01729 -5.15036,-24.91928 l 0.34589,-15.29169 3.26578,-2.91656 c 5.45892,-4.87519 15.34798,-3.35182 18.14901,2.79576 0.64065,1.40608 1.08521,9.16277 1.08521,18.93473 l 0,16.55295 -3.4,3.4 c -4.03949,4.03949 -9.18627,4.5594 -14.29553,1.44409 z"
         id="path3561"
         inkscape:connector-curvature="0" />
    </g>
  </g>
</svg>
